<svg xmlns="http://www.w3.org/2000/svg" xmlns:xlink="http://www.w3.org/1999/xlink" width="1280" height="507" viewBox="0 0 1280 507"><defs><clipPath id="a"><rect width="1280" height="507" transform="translate(0 293)" fill="#fff"/></clipPath><clipPath id="b"><path d="M1273.852,696.29C1035.95,363.431,572.222,73.911,340.868,63.071S-32.676,189.753,32.781,399.942s413.633,89.817,553.862,483.612,316.98,656.671,485.789,539.523C1299.937,1265.2,1511.752,1029.148,1273.852,696.29Z" transform="translate(0 0)" fill="none" stroke="#707070" stroke-width="1"/></clipPath><linearGradient id="c" y1="0.5" x2="1" y2="0.5" gradientUnits="objectBoundingBox"><stop offset="0" stop-color="#ec1b77"/><stop offset="1" stop-color="#ff5f21"/></linearGradient></defs><g transform="translate(0 -293)" clip-path="url(#a)"><g transform="matrix(-0.669, 0.743, -0.743, -0.669, 1663.15, 608.252)" clip-path="url(#b)"><path d="M3.553.614l1444.7,249.7a5.532,5.532,0,0,1,4.167,4.3l318.989,1912.633L319.6,1916.315.614,3.682C.275,1.648,1.591.275,3.553.614Z" transform="translate(-165.633 -248.483)" fill="url(#c)"/></g></g></svg>